<svg width="600" height="800" viewBox="0 0 600 800" fill="none" xmlns="http://www.w3.org/2000/svg"><rect width="600" height="800" rx="42" fill="#FFECEF"/><path d="M102 508C152 410 246 360 312 360C412 360 492 438 492 534C492 615 432 680 348 680C264 680 205 631 205 560C205 497 256 454 309 454C362 454 404 492 404 544" stroke="#D96A89" stroke-width="22" stroke-linecap="round"/><circle cx="175" cy="220" r="68" fill="#FFD7E2"/><path d="M132 241C170 180 241 158 305 158C396 158 462 205 490 274" stroke="#F0A4B8" stroke-width="18" stroke-linecap="round" stroke-dasharray="2 26"/><text x="72" y="92" fill="#7C5563" font-family="Georgia, serif" font-size="44">day one</text></svg>