<svg width="600" height="800" viewBox="0 0 600 800" fill="none" xmlns="http://www.w3.org/2000/svg"><rect width="600" height="800" rx="42" fill="#F8F2FF"/><path d="M104 606C160 530 225 490 303 490C382 490 445 531 496 606" stroke="#9A79D7" stroke-width="20" stroke-linecap="round"/><path d="M170 293C170 238 214 194 269 194C313 194 346 220 362 256C379 222 413 194 458 194C513 194 556 238 556 293C556 424 392 491 362 524C332 491 170 424 170 293Z" fill="#E0D2FF" transform="translate(-63 0)"/><path d="M152 126C220 111 292 109 373 126" stroke="#B99BEA" stroke-width="18" stroke-linecap="round" stroke-dasharray="3 24"/><text x="83" y="92" fill="#69558B" font-family="Georgia, serif" font-size="44">small secret</text></svg>