<svg width="600" height="800" viewBox="0 0 600 800" fill="none" xmlns="http://www.w3.org/2000/svg"><rect width="600" height="800" rx="42" fill="#F3FFF8"/><rect x="94" y="123" width="412" height="554" rx="34" fill="#E7FAEF"/><path d="M157 249C218 194 273 170 346 170C403 170 452 188 492 222" stroke="#74B28D" stroke-width="18" stroke-linecap="round" stroke-dasharray="4 24"/><path d="M166 553C198 514 245 490 300 490C355 490 402 514 434 553" stroke="#4FA16F" stroke-width="20" stroke-linecap="round"/><path d="M238 359C249 330 274 311 303 311C333 311 357 330 369 359" stroke="#8CC8A4" stroke-width="18" stroke-linecap="round"/><circle cx="235" cy="381" r="16" fill="#A6D8B8"/><circle cx="369" cy="381" r="16" fill="#A6D8B8"/><text x="76" y="94" fill="#547C65" font-family="Georgia, serif" font-size="40">future placeholder</text></svg>